<?xml version="1.0" encoding="UTF-8"?>
<svg id="b" data-name="Layer 2" xmlns="http://www.w3.org/2000/svg" viewBox="0 0 317.31 274.91">
  <g id="c" data-name="Layer 1">
    <path d="M52.65,174.16c4.29-.25,6.72-3.9,6.38-8.03-.17-2.18-.88-4.1-2.28-5.41-1.58-1.49-3.69-1.97-5.9-1.48l-6.78,1.51,4.61,23.05c1.68-.18,2.99-.45,4.35-.98l-1.5-7.6c-.14-.66.75-1.04,1.12-1.06ZM50.41,170.18c-.3-1.87-1.15-3.87-.99-5.96.52-1.02,3.13-1.34,4.12-.4,1.32,1.24,1.58,3.7.4,5.22-.8,1.01-2.26,1.09-3.53,1.14Z" fill="#eeeced"/>
    <path d="M68.73,155.88l-5.35,1.01c.28,2.07-.21,3.92-.21,5.91l-.03,18,4.3-.62.15-2.62,3.94-.68,1.02,2.43,4.23-.84-8.05-22.59ZM67.34,173.35l.1-8.62,2.71,8.02c-.18.87-2.07,1.02-2.81.6Z" fill="#eeeced"/>
    <path d="M83.44,166.27l1.52,10.87c-1.28.57-2.63.74-4.16.7l-3.28-23.14c1.06-.56,2.69-.88,3.7-.5l6.62,10.67-1.47-11.59c1.39-.33,2.66-.52,4.11-.42l3.17,23.08c-1.11.59-2.25.6-3.52.51l-6.69-10.18Z" fill="#eeeced"/>
    <polygon points="84.58 95.98 86.6 89.43 80.94 84.96 88.07 84.65 90.36 77.91 92.76 84.71 99.95 84.95 94.28 89.21 96.15 95.96 90.52 92.02 84.58 95.98" fill="#181818"/>
    <polygon points="107.82 155.06 100.84 155.86 101.51 160.73 108.36 160.02 108.83 164.21 101.88 165.06 102.57 170.66 109.46 170 109.83 174.33 98.48 175.46 96.05 152.01 107.29 150.75 107.82 155.06" fill="#eeeced"/>
    <path d="M109.93,107.58l-4.41,3.41,1.37,4.63c.02.06.05.12.09.14.35.21-.01.65-.27.29-.04-.07-.12-.2-.24-.24l-4.07-2.73-4.42,3.15,1.59-5.25-4.25-3.36,5.48-.21,1.72-5.01,1.9,5.09,5.51.09Z" fill="#181818"/>
    <path d="M124.29,173.07l-6.03-10.52.76,10.95c-1.32.42-2.69.35-4.19.35l-1.71-23.27c1.08-.53,2.38-.59,3.69-.41l5.86,11.07-.71-11.4c1.28-.36,2.58-.46,4.13-.31l1.71,23.28c-1.12.4-2.32.48-3.51.26Z" fill="#eeeced"/>
    <path d="M128.37,121.83c-.78,1.23-2.06,1.66-3.14,2.58l1.17,4.04-3.38-2.29-3.62,2.28,1.2-3.83-3.24-2.79,4.14-.11,1.35-4.1,1.46,4.01,4.06.21Z" fill="#181818"/>
    <path d="M136.77,165.21l.21,7.39-4.23.02-.83-23.55,4.4-.03c.15,2.45-.26,4.47.46,7.05l4.66-7.42h4.39s-5.46,9.54-5.46,9.54l7,13.93-4.74.15-4.7-9.29c-.83.43-1.19,1.25-1.16,2.21Z" fill="#eeeced"/>
    <path d="M201.2,49.5l-6.35-6.32,1.58-6.31c-4.86-8.51-12.37-15.2-21.49-18.8l-6.68,1.65-6.16-4.84c-9.68-.64-19.21,1.81-27.4,7.16l.51,12.88-6.2,3.23c-3.54,1.86-7.01,3.6-10.65,5.25-.59.27-.82.85-.89,1.31-.12.03-.31.18-.32.32l-.09.76c-3.47,11.66-2.02,24.29,4.6,35.17l4.21-10.47c1.17.23,2.5.66,3.4.55.15.33.54.32.82.34l1.4.1,11.55,1.81c.54.08,1.32.05,1.92.4.45.27.71,1.16.85,1.8l2.85,12.52,1.22,4.78-8.72,5.05c9.76,4.49,20.61,4.93,30.32,1.55l.85.12.36-.35.8-.07c.22-.01.48-.44.26-.68l-2.62-2.97,9.57-17.68,15.98,1.38c5.01-9.07,6.58-19.45,4.52-29.64ZM175.91,64.13l-22.44-2.42-4.29-22.05,19.05-10.99,6.82,6.26,9.95,9.34-9.09,19.86Z" fill="#eeeced"/>
    <path d="M159.29,148.46h-5.47s-4.14,23.73-4.14,23.73l4.26.04.54-2.46c1.24-.27,3.01-.68,4.28.13.22.6.05,2.01.72,2.36l3.98-.22-4.17-23.58ZM155.15,165.65l1.39-8.93,1.47,8.65c-.76.64-1.77.47-2.86.28Z" fill="#eeeced"/>
    <path d="M63.14,139.06c-1.25-10.25-1.4-20.04-.73-30.33,1.16-17.48,4.55-34.43,9.79-51.11,12.14-.71,23.74-2.14,35.82-4.16-1.03,14.32,3.22,27.98,12.66,38.4,14.95,16.42,37.15,21.34,57.74,13.05,5.38,7.91,8.94,16.36,11.71,25.32-7.33-.53-14.18-.8-21.39-.89-2.92-4.66-6.16-8.69-10.03-12.82-31.1-.01-56.7-24.17-58.28-55.22-6.78,1.03-13.41,1.75-20.44,2.34-3.84,13.69-6.34,27.5-7.34,41.78-.7,10.69-.46,20.91.99,31.58l-10.5,2.06Z" fill="#eeeced"/>
    <path d="M179.57,160.24l-.29,7.83,6.89.51c.2,1.43.22,2.81-.19,4.24l-11.34-.48.96-23.54c1.49-.14,2.79-.03,4.27.19.32,1.66-.11,3.25-.15,4.97l-.15,6.28Z" fill="#eeeced"/>
    <path d="M196.07,154.19l-.45,4.81,6.92.64-.13,4.07-7.09-.35-.45,5.62,6.95.64-.14,4.22-11.48-.74,1.71-23.62,11.37.76c.1,1.55-.14,2.88-.42,4.33l-6.79-.38Z" fill="#eeeced"/>
    <path d="M230,195.25c.12.24.1.74-.21,1.1-18.29,21.56-44.81,37.55-71.14,47.69-24.85-9.49-48.83-23.9-67.17-43.12-1.55-2.13-3.36-3.27-4.61-5.67l14.79-2.4c8.6,8.56,18.17,15.94,28.86,22.34,11.31-4.71,21.04-12.57,29.86-20.91l3.72-3.51c-.75,3.43-2.41,5.94-3.92,8.87-4.39,8.54-10.18,15.82-17.13,22.57l15.5,7.11c4.95-6.31,9.41-12.42,13.12-19.35,3.49-6.58,6.27-13.18,8.03-20.53l14.45.93c-1.72,9.91-5.09,18.62-9.19,27.58,7.91-7.9,13.23-17.05,18.13-26.67l26.12,3.8c.27.04.66-.11.79.17Z" fill="#eeeced"/>
    <path d="M237.26,158.11c.31,1.31.11,2.77-.04,4.18-1.57.13-2.89-.15-4.48-.46l.23-2.32c.13-1.24-.97-2.21-2.09-2.31-.93-.08-2.29.7-2.45,1.89l-1.5,11.12c-.17,1.32.76,2.43,1.79,2.68,1.29.33,2.51-.52,2.8-2.14.11-.6.16-1.13,0-1.42-.26-.48-1.37-.16-1.91-.41-.21-.1-.37-.5-.32-.91l.44-3.35,6.9.77-.59,5.31c-.43,3.84-3.21,6.58-7,6.56-3.46-.02-7.07-3.2-6.56-7.05l1.58-11.93c.44-3.29,3.53-5.28,6.48-5.35,3.19-.07,5.94,1.81,6.72,5.14Z" fill="#eeeced"/>
    <path d="M200.62,87.04l4.13-7.3c7.89,14.36,13.14,29.44,16.05,45.21.04.15.76.01.79-.2,2.31-21.39-3.15-43.34-12.27-62.69l-.08-8.59c12.03,2.04,23.78,3.42,35.86,4.21,5.29,17.16,8.73,34.37,9.72,52.19.62,9.89.39,19.35-.85,29.22-14.21-3.1-28.14-5.23-42.6-6.93-1.4-15.55-4.73-30.44-10.75-45.12Z" fill="#eeeced"/>
    <path d="M246.81,179.9c-3.53-.02-6.43-2.98-6.74-6.81l3.08-17.92c1.48-.17,2.88.19,4.36.58l-2.8,17.05c-.22,1.3.72,2.44,1.77,2.66,1.21.26,2.53-.57,2.77-1.97l2.86-16.89c1.62-.05,2.88.3,4.38.6l-2.66,16.5c-.59,3.67-3.42,6.22-7.02,6.2Z" fill="#eeeced"/>
    <path d="M268.38,183.63l-11.31-2.22,4.79-23.13,11.1,2.17c-.07,1.6-.26,2.89-.8,4.21l-6.8-1.33-.98,4.76,6.76,1.61-.66,4.08-6.97-1.22-1.04,5.42,6.75,1.47-.84,4.18Z" fill="#eeeced"/>
    <path d="M279.09,138.57c.8-10.48.57-20.29-.25-30.55-1.61-18.73-5.4-36.84-11.15-54.66l-5.5-14.48-8.85-.14c-13.99-.69-27.77-2.15-41.66-4.54-6.35-14-17.67-24.65-31.84-30.2-28.89-11.29-61.66,2.1-74.37,30.21-11.48,2.05-22.8,3.59-34.36,4.15l-7.08.33-8.94.27c-7.55,17.35-12.24,36.3-15,54.98-2.23,14.81-2.94,29.44-1.9,44.66-13.06,3.34-25.64,7.28-38.19,11.77l24.2,70.6c12.83-4.38,25.33-8.43,38.53-11.54,3.65,5.05,7.59,9.48,11.83,14.14,20.46,21.19,46.72,37.15,74.11,47.87l10.14,3.47c32.02-10.76,64.04-29.4,86.66-54.35l9.09-11.17c10.36,2.55,20.36,5.66,30.52,8.92l8.05,2.58,24.18-70.54c-12.65-4.58-25.22-8.34-38.22-11.78ZM288.48,210.11c-12.45-4.12-24.68-7.58-37.37-10.46-6.55,9.66-14.1,17.99-22.67,25.63-7.23,6.38-14.63,12.02-22.77,17.25-14.68,9.48-30.13,17.02-47.07,22.92-16.66-5.63-32.24-13.33-46.92-22.78-11.93-7.68-22.79-16.48-32.53-26.67-4.73-5.3-9.06-10.42-13.05-16.37-12.7,2.91-24.75,6.31-37.27,10.51l-19.39-56.48c12.11-4.23,24.24-7.58,36.57-10.76-1.1-10.08-1.34-19.68-.74-29.73,1.37-23.43,6.32-46.26,14.59-68.28l7.35-.5c14.84-1,29.51-2.57,44.33-5.27,7.91-19.22,26.27-31.55,46.87-31.68,20.57-.12,39.39,12.37,47.31,31.69,17.06,3.1,34.21,5.02,51.63,5.58,7.17,19.36,11.76,39.15,13.77,59.6,1.18,12.96,1.28,25.56-.12,38.56,12.5,3.07,24.51,6.64,36.85,10.74l-19.37,56.5Z" fill="#181818"/>
    <polygon points="94.28 89.21 96.15 95.96 90.52 92.02 84.58 95.98 86.6 89.43 80.94 84.96 88.07 84.65 90.36 77.91 92.76 84.71 99.95 84.95 94.28 89.21" fill="#a8ff00"/>
    <path d="M125.23,124.41l1.17,4.04-3.38-2.29-3.62,2.28,1.2-3.83-3.24-2.79,4.14-.11,1.35-4.1,1.46,4.01,4.06.21c-.78,1.23-2.06,1.66-3.14,2.58Z" fill="#a8ff00"/>
    <path d="M106.71,116.05c-.04-.07-.12-.2-.24-.24l-4.07-2.73-4.42,3.15,1.59-5.25-4.25-3.36,5.48-.21,1.72-5.01,1.9,5.09,5.51.09-4.41,3.41,1.37,4.63c.02.06.05.12.09.14.35.21-.01.65-.27.29Z" fill="#a8ff00"/>
    <path d="M279.09,138.57c.8-10.48.57-20.29-.25-30.55-1.61-18.73-5.4-36.84-11.15-54.66l-5.5-14.48-8.85-.14c-13.99-.69-27.77-2.15-41.66-4.54-6.35-14-17.67-24.65-31.84-30.2-28.89-11.29-61.66,2.1-74.37,30.21-11.48,2.05-22.8,3.59-34.36,4.15l-7.08.33-8.94.27c-7.55,17.35-12.24,36.3-15,54.98-2.23,14.81-2.94,29.44-1.9,44.66-13.06,3.34-25.64,7.28-38.19,11.77l24.2,70.6c12.83-4.38,25.33-8.43,38.53-11.54,3.65,5.05,7.59,9.48,11.83,14.14,20.46,21.19,46.72,37.15,74.11,47.87l10.14,3.47c32.02-10.76,64.04-29.4,86.66-54.35l9.09-11.17c10.36,2.55,20.36,5.66,30.52,8.92l8.05,2.58,24.18-70.54c-12.65-4.58-25.22-8.34-38.22-11.78ZM288.48,210.11c-12.45-4.12-24.68-7.58-37.37-10.46-6.55,9.66-14.1,17.99-22.67,25.63-7.23,6.38-14.63,12.02-22.77,17.25-14.68,9.48-30.13,17.02-47.07,22.92-16.66-5.63-32.24-13.33-46.92-22.78-11.93-7.68-22.79-16.48-32.53-26.67-4.73-5.3-9.06-10.42-13.05-16.37-12.7,2.91-24.75,6.31-37.27,10.51l-19.39-56.48c12.11-4.23,24.24-7.58,36.57-10.76-1.1-10.08-1.34-19.68-.74-29.73,1.37-23.43,6.32-46.26,14.59-68.28l7.35-.5c14.84-1,29.51-2.57,44.33-5.27,7.91-19.22,26.27-31.55,46.87-31.68,20.57-.12,39.39,12.37,47.31,31.69,17.06,3.1,34.21,5.02,51.63,5.58,7.17,19.36,11.76,39.15,13.77,59.6,1.18,12.96,1.28,25.56-.12,38.56,12.5,3.07,24.51,6.64,36.85,10.74l-19.37,56.5Z" fill="#a8ff00"/>
    <path d="M106.89,115.62c-.14.04-.28.09-.42.19.12.04.2.17.24.24l.27-.29s-.07-.08-.09-.14Z" fill="#1a142e"/>
    <path d="M217.25,151.75l-5.6-.56-6.57,22.93c1.64.37,2.9.48,4.33.34l.82-2.28,4.12.42.26,2.57,4.27.33-1.63-23.75ZM211.05,168.27l2.5-8.87.51,9.2c-1.11.05-1.89.09-3.01-.33Z" fill="#eeeced"/>
    <path d="M143.6,71.61c-.37.59-.7,1.04-.56,1.68l-11.55-1.81c.22-.24.41-.6.17-.91-5.12-6.77-7.75-16.86-8.76-25.27-.92.69-1.82,1.63-1.91,2.58-.76,7.92,1.2,15.88,4.88,22.61l-4.21,10.47c-6.62-10.88-8.07-23.51-4.6-35.17.74.11,1.36-.19,2.13-.47l16.6-6.08,2.52,1.16c.06,9.07,3.4,17.62,9.6,24.42l-4.31,6.79Z" fill="#bbb"/>
    <path d="M173.58,77.6l-5.45,15.64c-6.87-.96-13.35-2.62-19.47-5.23l-2.85-12.52,7.58-5.61c5.77,4.6,12.52,7.17,20.19,7.72Z" fill="#bbb"/>
    <path d="M171.48,99.39c-9.71,3.38-20.56,2.94-30.32-1.55l8.72-5.05c5.43,1.7,11.1,2.31,16.95,2.86l4.65,3.74Z" fill="#bbb"/>
    <path d="M131.49,71.48l-1.4-.1c.06-.2.05-.58-.22-.71-.26-.11-.46.3-.6.37-.9.11-2.23-.32-3.4-.55-3.68-6.73-5.64-14.69-4.88-22.61.09-.95.99-1.89,1.91-2.58,1.01,8.41,3.64,18.5,8.76,25.27.24.31.05.67-.17.91Z" fill="#f9f8f8"/>
    <path d="M130.09,71.38c-.28-.02-.67-.01-.82-.34.14-.07.34-.48.6-.37.27.13.28.51.22.71Z" fill="#d9d8e6"/>
    <path d="M117.47,44.71c-.01.12-.23.27-.32.32.01-.14.2-.29.32-.32Z" fill="#d9d8e6"/>
  </g>
</svg>